<svg width="82" height="82" viewBox="0 0 82 82" fill="none" xmlns="http://www.w3.org/2000/svg">
<g clip-path="url(#clip0_104_1025)">
<path d="M69.5375 69.5338C85.3068 53.7645 85.3069 28.1974 69.5376 12.4281C53.7683 -3.34124 28.2011 -3.34113 12.4318 12.4282C-3.33747 28.1975 -3.33744 53.7645 12.4319 69.5338C28.2011 85.3031 53.7682 85.3031 69.5375 69.5338Z" fill="#FFD502"/>
<path d="M44.7214 81.8324C35.3424 82.6886 25.9545 80.2897 18.136 75.039C10.3174 69.7883 4.5449 62.006 1.78886 53.0002C-0.967194 43.9945 -0.538639 34.3145 3.00222 25.5875C6.54308 16.8605 12.9804 9.6185 21.2322 5.07905C29.484 0.539596 39.0471 -1.02056 48.3138 0.66082C57.5805 2.3422 65.9859 7.1626 72.1169 14.3117C78.2479 21.4608 81.7306 30.5027 81.9797 39.9174C82.2289 49.3321 79.2292 58.5456 73.4849 66.009C70.2083 70.2837 66.1171 73.8667 61.4476 76.551C56.7782 79.2353 51.623 80.9677 46.2801 81.648L44.7214 81.8324ZM37.3628 1.37449L35.8542 1.5421C29.3796 2.39459 23.2148 4.8294 17.9052 8.63122C12.5955 12.433 8.30444 17.4847 5.41156 23.3394C2.51869 29.1941 1.11324 35.6715 1.31926 42.1987C1.52529 48.7259 3.33646 55.1017 6.59281 60.7623C9.84916 66.423 14.4503 71.194 19.9892 74.6533C25.528 78.1127 31.834 80.1539 38.3495 80.5964C44.8649 81.0389 51.389 79.869 57.3447 77.1902C63.3004 74.5114 68.5043 70.4063 72.496 65.2379C77.2224 59.1058 80.0548 51.7268 80.6452 44.0072C81.2357 36.2876 79.5585 28.5636 75.8198 21.784C72.081 15.0045 66.4436 9.46453 59.5998 5.84472C52.7559 2.22491 45.0038 0.68285 37.2957 1.408L37.3628 1.37449Z" fill="black"/>
<path d="M44.4363 77.4407C35.2393 78.3121 26.0546 75.658 18.7401 70.0151C18.609 69.9151 18.5229 69.7671 18.5009 69.6036C18.4789 69.4401 18.5227 69.2746 18.6227 69.1435C18.7227 69.0123 18.8707 68.9263 19.0342 68.9043C19.1976 68.8823 19.3632 68.9261 19.4943 69.0262C26.935 74.7354 36.3355 77.262 45.6357 76.0523C54.936 74.8426 63.3774 69.9954 69.11 62.5728C69.21 62.4416 69.358 62.3556 69.5215 62.3336C69.6849 62.3116 69.8505 62.3554 69.9817 62.4554C70.1128 62.5555 70.1988 62.7035 70.2209 62.8669C70.2429 63.0304 70.1991 63.1959 70.0991 63.327C67.0276 67.3237 63.1617 70.6411 58.745 73.0701C54.3283 75.4991 49.4564 76.9872 44.4363 77.4407Z" fill="black"/>
<path d="M38.2845 45.1067C44.3356 46.8835 50.1353 46.6656 54.5102 44.1513C56.1766 43.1438 57.6269 41.8164 58.7777 40.2456C59.9285 38.6748 60.7569 36.8918 61.2151 34.9992C61.8212 33.1386 62.0242 31.1702 61.8103 29.2251C61.5964 27.28 60.9707 25.4028 59.9747 23.7183C57.8794 20.3659 53.8061 17.5834 47.688 15.7731C43.7162 14.5752 39.6512 13.7118 35.5355 13.1918L25.78 46.2465L22.2097 45.1905L20.5335 51.007L24.1038 52.0462L21.5895 60.5949L27.7748 62.4219L30.3057 53.8733L35.9044 55.5495L37.5806 49.7498L31.9819 48.0736L33.4069 43.2126C34.956 44.0262 36.5922 44.6616 38.2845 45.1067ZM40.4133 19.5111C42.4493 19.6808 44.4582 20.0916 46.3975 20.7347C53.1023 22.7126 56.8234 27.121 54.9293 33.5241C53.0352 39.9272 47.3696 42.3577 39.8434 40.229C38.0897 39.7715 36.4003 39.0958 34.8148 38.2175L40.4133 19.5111Z" fill="black"/>
</g>
<defs>
<clipPath id="clip0_104_1025">
<rect width="82" height="82" fill="white"/>
</clipPath>
</defs>
</svg>
