<svg width="36" height="36" viewBox="0 0 36 36" fill="none" xmlns="http://www.w3.org/2000/svg">
<path d="M18 0C13.2272 0 8.64563 1.89759 5.27344 5.27203C1.89777 8.64781 0.000935072 13.226 0 18C0 22.772 1.89844 27.3535 5.27344 30.728C8.64563 34.1024 13.2272 36 18 36C22.7728 36 27.3544 34.1024 30.7266 30.728C34.1016 27.3535 36 22.772 36 18C36 13.228 34.1016 8.64647 30.7266 5.27203C27.3544 1.89759 22.7728 0 18 0Z" fill="url(#paint0_linear_3_376)"/>
<path d="M8.14825 17.8101C13.3964 15.5241 16.8951 14.0168 18.6445 13.2887C23.6451 11.2094 24.6829 10.8483 25.3608 10.836C25.5098 10.8337 25.8417 10.8705 26.0583 11.0456C26.2383 11.1932 26.2889 11.3929 26.3142 11.5331C26.3367 11.6732 26.3676 11.9924 26.3423 12.2416C26.0723 15.0878 24.8995 21.9948 24.3033 25.1827C24.0529 26.5316 23.5551 26.9839 23.0742 27.028C22.0279 27.1242 21.2348 26.3373 20.2223 25.6738C18.6389 24.6352 17.7445 23.9888 16.2061 22.9755C14.4286 21.8044 15.5817 21.1606 16.5942 20.1087C16.8586 19.8334 21.4654 15.6442 21.5526 15.2642C21.5639 15.2167 21.5751 15.0395 21.4683 14.9461C21.3642 14.8524 21.2095 14.8845 21.097 14.9098C20.9367 14.9458 18.4083 16.6187 13.5033 19.9282C12.7861 20.4215 12.1364 20.6619 11.5514 20.6493C10.9101 20.6355 9.67263 20.2859 8.75294 19.9872C7.62794 19.6207 6.73075 19.427 6.8095 18.8046C6.84888 18.4806 7.29607 18.149 8.14825 17.8101Z" fill="white"/>
<defs>
<linearGradient id="paint0_linear_3_376" x1="1800" y1="0" x2="1800" y2="3600" gradientUnits="userSpaceOnUse">
<stop stop-color="#2AABEE"/>
<stop offset="1" stop-color="#229ED9"/>
</linearGradient>
</defs>
</svg>
